<mxfile host="Electron" agent="Mozilla/5.0 (Windows NT 10.0; Win64; x64) AppleWebKit/537.36 (KHTML, like Gecko) draw.io/26.0.16 Chrome/132.0.6834.196 Electron/34.2.0 Safari/537.36" version="26.0.16">
  <diagram name="Page-1" id="EtMnzcgHfZz5ty_XabEl">
    <mxGraphModel dx="2084" dy="1837" grid="1" gridSize="10" guides="1" tooltips="1" connect="1" arrows="1" fold="1" page="1" pageScale="1" pageWidth="850" pageHeight="1100" background="none" math="0" shadow="0">
      <root>
        <mxCell id="0" />
        <mxCell id="1" parent="0" />
        <mxCell id="Np-ABr15ij-Jm8Wm-Wb1-141" value="" style="group" vertex="1" connectable="0" parent="1">
          <mxGeometry x="-140" y="-80" width="3150" height="1650" as="geometry" />
        </mxCell>
        <mxCell id="Np-ABr15ij-Jm8Wm-Wb1-14" value="+4" style="rounded=0;whiteSpace=wrap;html=1;fillColor=#FFCCCC;container=0;" vertex="1" parent="Np-ABr15ij-Jm8Wm-Wb1-141">
          <mxGeometry x="211.66007905138338" y="104.43037974683544" width="49.80237154150197" height="83.54430379746836" as="geometry" />
        </mxCell>
        <mxCell id="Np-ABr15ij-Jm8Wm-Wb1-15" value="" style="endArrow=classic;html=1;rounded=0;entryX=1;entryY=0.5;entryDx=0;entryDy=0;strokeColor=light-dark(#FF0000,#EDEDED);strokeWidth=5;" edge="1" parent="Np-ABr15ij-Jm8Wm-Wb1-141" target="Np-ABr15ij-Jm8Wm-Wb1-14">
          <mxGeometry width="50" height="50" relative="1" as="geometry">
            <mxPoint x="385.9683794466403" y="547.2151898734178" as="sourcePoint" />
            <mxPoint x="460.67193675889325" y="480.37974683544303" as="targetPoint" />
            <Array as="points">
              <mxPoint x="385.9683794466403" y="547.2151898734178" />
              <mxPoint x="385.9683794466403" y="146.20253164556962" />
            </Array>
          </mxGeometry>
        </mxCell>
        <mxCell id="Np-ABr15ij-Jm8Wm-Wb1-8" value="" style="endArrow=classic;html=1;rounded=0;entryX=0.25;entryY=1;entryDx=0;entryDy=0;exitX=0;exitY=0.5;exitDx=0;exitDy=0;strokeColor=light-dark(#FF0000,#EDEDED);strokeWidth=5;" edge="1" parent="Np-ABr15ij-Jm8Wm-Wb1-141" source="Np-ABr15ij-Jm8Wm-Wb1-14" target="Np-ABr15ij-Jm8Wm-Wb1-7">
          <mxGeometry width="50" height="50" relative="1" as="geometry">
            <mxPoint x="12.450592885375492" y="438.6075949367089" as="sourcePoint" />
            <mxPoint x="87.15415019762845" y="396.8354430379747" as="targetPoint" />
            <Array as="points">
              <mxPoint x="87.15415019762845" y="146.20253164556962" />
              <mxPoint x="87.15415019762845" y="438.6075949367089" />
            </Array>
          </mxGeometry>
        </mxCell>
        <mxCell id="Np-ABr15ij-Jm8Wm-Wb1-17" value="" style="group;fillColor=default;container=0;" vertex="1" connectable="0" parent="Np-ABr15ij-Jm8Wm-Wb1-141">
          <mxGeometry x="516.699604743083" y="438.6075949367089" width="174.3083003952569" height="459.49367088607596" as="geometry" />
        </mxCell>
        <mxCell id="Np-ABr15ij-Jm8Wm-Wb1-21" value="" style="group;fillColor=default;container=0;" vertex="1" connectable="0" parent="Np-ABr15ij-Jm8Wm-Wb1-141">
          <mxGeometry x="691.0079051383399" y="20.88607594936709" width="174.3083003952569" height="1629.113924050633" as="geometry" />
        </mxCell>
        <mxCell id="Np-ABr15ij-Jm8Wm-Wb1-25" value="" style="endArrow=classic;html=1;rounded=0;entryX=0.077;entryY=0.917;entryDx=0;entryDy=0;entryPerimeter=0;strokeColor=light-dark(#FF0000,#EDEDED);strokeWidth=5;" edge="1" parent="Np-ABr15ij-Jm8Wm-Wb1-141" target="Np-ABr15ij-Jm8Wm-Wb1-22">
          <mxGeometry width="50" height="50" relative="1" as="geometry">
            <mxPoint x="385.9683794466403" y="146.20253164556962" as="sourcePoint" />
            <mxPoint x="784.3873517786561" y="146.20253164556962" as="targetPoint" />
          </mxGeometry>
        </mxCell>
        <mxCell id="Np-ABr15ij-Jm8Wm-Wb1-35" value="" style="endArrow=none;html=1;rounded=0;exitX=0.308;exitY=-0.033;exitDx=0;exitDy=0;exitPerimeter=0;strokeColor=light-dark(#eeff00, #ededed);strokeWidth=5;" edge="1" parent="Np-ABr15ij-Jm8Wm-Wb1-141" source="Np-ABr15ij-Jm8Wm-Wb1-22">
          <mxGeometry width="50" height="50" relative="1" as="geometry">
            <mxPoint x="865.3162055335968" y="584.8101265822785" as="sourcePoint" />
            <mxPoint x="896.4426877470355" y="417.72151898734177" as="targetPoint" />
            <Array as="points">
              <mxPoint x="896.4426877470355" y="522.1518987341772" />
            </Array>
          </mxGeometry>
        </mxCell>
        <mxCell id="Np-ABr15ij-Jm8Wm-Wb1-36" value="" style="rounded=0;whiteSpace=wrap;html=1;fillColor=#FFFFCC;container=0;" vertex="1" parent="Np-ABr15ij-Jm8Wm-Wb1-141">
          <mxGeometry x="1058.300395256917" y="1315.8227848101267" width="958.695652173913" height="250.63291139240508" as="geometry" />
        </mxCell>
        <mxCell id="Np-ABr15ij-Jm8Wm-Wb1-45" value="" style="endArrow=classic;html=1;rounded=0;strokeColor=#66CC00;strokeWidth=5;" edge="1" parent="Np-ABr15ij-Jm8Wm-Wb1-141" target="Np-ABr15ij-Jm8Wm-Wb1-48">
          <mxGeometry width="50" height="50" relative="1" as="geometry">
            <mxPoint x="1220.1581027667983" y="647.4683544303798" as="sourcePoint" />
            <mxPoint x="1269.9604743083003" y="229.74683544303798" as="targetPoint" />
            <Array as="points">
              <mxPoint x="1220.1581027667983" y="334.17721518987344" />
            </Array>
          </mxGeometry>
        </mxCell>
        <mxCell id="Np-ABr15ij-Jm8Wm-Wb1-46" value="" style="endArrow=classic;html=1;rounded=0;entryX=0.319;entryY=0.554;entryDx=0;entryDy=0;exitX=0.042;exitY=0;exitDx=0;exitDy=0;exitPerimeter=0;strokeColor=light-dark(#fbff00, #ededed);strokeWidth=5;entryPerimeter=0;" edge="1" parent="Np-ABr15ij-Jm8Wm-Wb1-141" target="Np-ABr15ij-Jm8Wm-Wb1-47" source="Np-ABr15ij-Jm8Wm-Wb1-27">
          <mxGeometry width="50" height="50" relative="1" as="geometry">
            <mxPoint x="1232.6086956521738" y="396.8354430379747" as="sourcePoint" />
            <mxPoint x="1282.4110671936758" y="355.0632911392405" as="targetPoint" />
          </mxGeometry>
        </mxCell>
        <mxCell id="Np-ABr15ij-Jm8Wm-Wb1-66" value="" style="endArrow=classic;html=1;rounded=0;exitX=0.25;exitY=0;exitDx=0;exitDy=0;strokeColor=light-dark(#fbff00, #ededed);strokeWidth=5;" edge="1" parent="Np-ABr15ij-Jm8Wm-Wb1-141" source="Np-ABr15ij-Jm8Wm-Wb1-27">
          <mxGeometry width="50" height="50" relative="1" as="geometry">
            <mxPoint x="1195.2569169960473" y="522.1518987341772" as="sourcePoint" />
            <mxPoint x="1290" y="522" as="targetPoint" />
          </mxGeometry>
        </mxCell>
        <mxCell id="Np-ABr15ij-Jm8Wm-Wb1-74" value="" style="endArrow=classic;html=1;rounded=0;exitX=0.5;exitY=0;exitDx=0;exitDy=0;strokeColor=#CCCC00;strokeWidth=5;" edge="1" parent="Np-ABr15ij-Jm8Wm-Wb1-141" source="Np-ABr15ij-Jm8Wm-Wb1-44">
          <mxGeometry width="50" height="50" relative="1" as="geometry">
            <mxPoint x="1444.2687747035573" y="375.9493670886076" as="sourcePoint" />
            <mxPoint x="1530" y="376" as="targetPoint" />
          </mxGeometry>
        </mxCell>
        <mxCell id="Np-ABr15ij-Jm8Wm-Wb1-92" value="" style="endArrow=classic;html=1;rounded=0;exitX=0.436;exitY=-0.008;exitDx=0;exitDy=0;exitPerimeter=0;entryX=0.167;entryY=0.444;entryDx=0;entryDy=0;entryPerimeter=0;" edge="1" parent="Np-ABr15ij-Jm8Wm-Wb1-141" source="Np-ABr15ij-Jm8Wm-Wb1-36" target="Np-ABr15ij-Jm8Wm-Wb1-88">
          <mxGeometry width="50" height="50" relative="1" as="geometry">
            <mxPoint x="1668.379446640316" y="918.9873417721519" as="sourcePoint" />
            <mxPoint x="1481.6205533596838" y="626.5822784810126" as="targetPoint" />
            <Array as="points">
              <mxPoint x="1481.6205533596838" y="626.5822784810126" />
            </Array>
          </mxGeometry>
        </mxCell>
        <mxCell id="Np-ABr15ij-Jm8Wm-Wb1-73" value="" style="endArrow=classic;html=1;rounded=0;exitX=0.077;exitY=0.033;exitDx=0;exitDy=0;exitPerimeter=0;strokeColor=#FFF700;strokeWidth=5;" edge="1" parent="Np-ABr15ij-Jm8Wm-Wb1-141" source="Np-ABr15ij-Jm8Wm-Wb1-22">
          <mxGeometry width="50" height="50" relative="1" as="geometry">
            <mxPoint x="1444.2687747035573" y="276.74050632911394" as="sourcePoint" />
            <mxPoint x="1540" y="278" as="targetPoint" />
            <Array as="points">
              <mxPoint x="1469.1699604743083" y="146.20253164556962" />
              <mxPoint x="1469.1699604743083" y="277.7848101265823" />
            </Array>
          </mxGeometry>
        </mxCell>
        <mxCell id="Np-ABr15ij-Jm8Wm-Wb1-95" value="" style="endArrow=none;html=1;rounded=0;movable=1;resizable=1;rotatable=1;deletable=1;editable=1;locked=0;connectable=1;flowAnimation=0;shadow=0;fillColor=#fff2cc;strokeColor=#d6b656;strokeWidth=12;" edge="1" parent="Np-ABr15ij-Jm8Wm-Wb1-141">
          <mxGeometry width="50" height="50" relative="1" as="geometry">
            <mxPoint x="1718.181818181818" y="250.63291139240508" as="sourcePoint" />
            <mxPoint x="1718.181818181818" y="250.63291139240508" as="targetPoint" />
            <Array as="points">
              <mxPoint x="1867.588932806324" y="417.72151898734177" />
              <mxPoint x="1867.588932806324" y="501.26582278481015" />
              <mxPoint x="1718.181818181818" y="668.3544303797469" />
              <mxPoint x="1718.181818181818" y="543.0379746835443" />
              <mxPoint x="1780.4347826086955" y="501.26582278481015" />
              <mxPoint x="1780.4347826086955" y="417.72151898734177" />
              <mxPoint x="1718.181818181818" y="375.9493670886076" />
            </Array>
          </mxGeometry>
        </mxCell>
        <mxCell id="Np-ABr15ij-Jm8Wm-Wb1-100" value="" style="endArrow=classic;html=1;rounded=0;entryX=0.089;entryY=1;entryDx=0;entryDy=0;entryPerimeter=0;strokeColor=#FFF700;strokeWidth=5;" edge="1" parent="Np-ABr15ij-Jm8Wm-Wb1-141" target="Np-ABr15ij-Jm8Wm-Wb1-97">
          <mxGeometry width="50" height="50" relative="1" as="geometry">
            <mxPoint x="1469.1699604743083" y="146.20253164556962" as="sourcePoint" />
            <mxPoint x="1494.0711462450593" y="375.9493670886076" as="targetPoint" />
          </mxGeometry>
        </mxCell>
        <mxCell id="Np-ABr15ij-Jm8Wm-Wb1-101" value="" style="endArrow=classic;html=1;rounded=0;entryX=-0.003;entryY=0.43;entryDx=0;entryDy=0;entryPerimeter=0;strokeColor=light-dark(#fff700, #ededed);strokeWidth=5;" edge="1" parent="Np-ABr15ij-Jm8Wm-Wb1-141" target="Np-ABr15ij-Jm8Wm-Wb1-36">
          <mxGeometry width="50" height="50" relative="1" as="geometry">
            <mxPoint x="896.4426877470355" y="522.1518987341772" as="sourcePoint" />
            <mxPoint x="1494.0711462450593" y="856.3291139240506" as="targetPoint" />
            <Array as="points">
              <mxPoint x="896.4426877470355" y="1424.4303797468356" />
            </Array>
          </mxGeometry>
        </mxCell>
        <mxCell id="Np-ABr15ij-Jm8Wm-Wb1-102" value="" style="endArrow=classic;html=1;rounded=0;strokeColor=light-dark(#f8fc03, #ededed);strokeWidth=5;" edge="1" parent="Np-ABr15ij-Jm8Wm-Wb1-141">
          <mxGeometry width="50" height="50" relative="1" as="geometry">
            <mxPoint x="908.893280632411" y="1253.1645569620252" as="sourcePoint" />
            <mxPoint x="2166.403162055336" y="1253.1645569620252" as="targetPoint" />
          </mxGeometry>
        </mxCell>
        <mxCell id="Np-ABr15ij-Jm8Wm-Wb1-103" value="" style="endArrow=classic;html=1;rounded=0;entryX=0.393;entryY=0.971;entryDx=0;entryDy=0;entryPerimeter=0;exitX=0.908;exitY=0.001;exitDx=0;exitDy=0;exitPerimeter=0;strokeColor=#999900;strokeWidth=5;" edge="1" parent="Np-ABr15ij-Jm8Wm-Wb1-141" source="Np-ABr15ij-Jm8Wm-Wb1-36" target="Np-ABr15ij-Jm8Wm-Wb1-97">
          <mxGeometry width="50" height="50" relative="1" as="geometry">
            <mxPoint x="1929.8418972332015" y="1309.5569620253166" as="sourcePoint" />
            <mxPoint x="1842.687747035573" y="856.3291139240506" as="targetPoint" />
            <Array as="points">
              <mxPoint x="1929.8418972332015" y="647.4683544303798" />
            </Array>
          </mxGeometry>
        </mxCell>
        <mxCell id="Np-ABr15ij-Jm8Wm-Wb1-104" value="" style="endArrow=classic;html=1;rounded=0;entryX=0.458;entryY=0.995;entryDx=0;entryDy=0;entryPerimeter=0;exitX=0.934;exitY=-0.023;exitDx=0;exitDy=0;exitPerimeter=0;strokeColor=#999900;strokeWidth=5;" edge="1" parent="Np-ABr15ij-Jm8Wm-Wb1-141" source="Np-ABr15ij-Jm8Wm-Wb1-36" target="Np-ABr15ij-Jm8Wm-Wb1-97">
          <mxGeometry width="50" height="50" relative="1" as="geometry">
            <mxPoint x="1954.7430830039525" y="1294.9367088607596" as="sourcePoint" />
            <mxPoint x="2166.403162055336" y="835.4430379746835" as="targetPoint" />
            <Array as="points">
              <mxPoint x="1954.7430830039525" y="756.0759493670886" />
            </Array>
          </mxGeometry>
        </mxCell>
        <mxCell id="Np-ABr15ij-Jm8Wm-Wb1-109" value="" style="endArrow=classic;html=1;rounded=0;entryX=0.333;entryY=1.019;entryDx=0;entryDy=0;entryPerimeter=0;strokeColor=#FFF700;strokeWidth=5;" edge="1" parent="Np-ABr15ij-Jm8Wm-Wb1-141" target="Np-ABr15ij-Jm8Wm-Wb1-97">
          <mxGeometry width="50" height="50" relative="1" as="geometry">
            <mxPoint x="1406.9169960474308" y="563.9240506329114" as="sourcePoint" />
            <mxPoint x="2166.403162055336" y="668.3544303797469" as="targetPoint" />
            <Array as="points">
              <mxPoint x="1406.9169960474308" y="751.8987341772151" />
              <mxPoint x="1904.9407114624505" y="751.8987341772151" />
              <mxPoint x="1904.9407114624505" y="549.3037974683544" />
            </Array>
          </mxGeometry>
        </mxCell>
        <mxCell id="Np-ABr15ij-Jm8Wm-Wb1-107" value="" style="endArrow=classic;html=1;rounded=0;strokeColor=#00FF00;strokeWidth=5;" edge="1" parent="Np-ABr15ij-Jm8Wm-Wb1-141">
          <mxGeometry width="50" height="50" relative="1" as="geometry">
            <mxPoint x="2278.458498023715" y="396.8354430379747" as="sourcePoint" />
            <mxPoint x="2552.371541501976" y="396.8354430379747" as="targetPoint" />
          </mxGeometry>
        </mxCell>
        <mxCell id="Np-ABr15ij-Jm8Wm-Wb1-110" value="" style="endArrow=classic;html=1;rounded=0;exitX=0.324;exitY=0.043;exitDx=0;exitDy=0;exitPerimeter=0;entryX=0.364;entryY=0.995;entryDx=0;entryDy=0;entryPerimeter=0;strokeColor=#00FF00;strokeWidth=5;" edge="1" parent="Np-ABr15ij-Jm8Wm-Wb1-141" source="Np-ABr15ij-Jm8Wm-Wb1-97" target="Np-ABr15ij-Jm8Wm-Wb1-106">
          <mxGeometry width="50" height="50" relative="1" as="geometry">
            <mxPoint x="2402.96442687747" y="584.8101265822785" as="sourcePoint" />
            <mxPoint x="2548.6363636363635" y="572.2784810126583" as="targetPoint" />
            <Array as="points" />
          </mxGeometry>
        </mxCell>
        <mxCell id="Np-ABr15ij-Jm8Wm-Wb1-111" value="" style="endArrow=classic;html=1;rounded=0;exitX=0.393;exitY=-0.029;exitDx=0;exitDy=0;exitPerimeter=0;strokeColor=#00FF00;strokeWidth=5;" edge="1" parent="Np-ABr15ij-Jm8Wm-Wb1-141" source="Np-ABr15ij-Jm8Wm-Wb1-97">
          <mxGeometry width="50" height="50" relative="1" as="geometry">
            <mxPoint x="2253.5573122529645" y="1023.4177215189874" as="sourcePoint" />
            <mxPoint x="2552.371541501976" y="647.4683544303798" as="targetPoint" />
            <Array as="points" />
          </mxGeometry>
        </mxCell>
        <mxCell id="Np-ABr15ij-Jm8Wm-Wb1-112" value="" style="endArrow=classic;html=1;rounded=0;exitX=0.456;exitY=0.067;exitDx=0;exitDy=0;exitPerimeter=0;entryX=0.798;entryY=1.043;entryDx=0;entryDy=0;entryPerimeter=0;strokeColor=#00FF00;strokeWidth=5;" edge="1" parent="Np-ABr15ij-Jm8Wm-Wb1-141" source="Np-ABr15ij-Jm8Wm-Wb1-97" target="Np-ABr15ij-Jm8Wm-Wb1-106">
          <mxGeometry width="50" height="50" relative="1" as="geometry">
            <mxPoint x="1929.8418972332015" y="751.8987341772151" as="sourcePoint" />
            <mxPoint x="2552.371541501976" y="710.126582278481" as="targetPoint" />
            <Array as="points" />
          </mxGeometry>
        </mxCell>
        <mxCell id="Np-ABr15ij-Jm8Wm-Wb1-113" value="" style="endArrow=classic;html=1;rounded=0;entryX=1;entryY=0.5;entryDx=0;entryDy=0;strokeColor=light-dark(#00CC00,#EDEDED);strokeWidth=8;" edge="1" parent="Np-ABr15ij-Jm8Wm-Wb1-141" target="Np-ABr15ij-Jm8Wm-Wb1-36">
          <mxGeometry width="50" height="50" relative="1" as="geometry">
            <mxPoint x="2241.106719367589" y="1253.1645569620252" as="sourcePoint" />
            <mxPoint x="2303.359683794466" y="1148.73417721519" as="targetPoint" />
            <Array as="points">
              <mxPoint x="2502.569169960474" y="1253.1645569620252" />
              <mxPoint x="2502.569169960474" y="1441.139240506329" />
            </Array>
          </mxGeometry>
        </mxCell>
        <mxCell id="Np-ABr15ij-Jm8Wm-Wb1-119" value="" style="endArrow=classic;html=1;rounded=0;exitX=0.292;exitY=0.019;exitDx=0;exitDy=0;exitPerimeter=0;strokeColor=#00FF00;strokeWidth=5;" edge="1" parent="Np-ABr15ij-Jm8Wm-Wb1-141" source="Np-ABr15ij-Jm8Wm-Wb1-106">
          <mxGeometry width="50" height="50" relative="1" as="geometry">
            <mxPoint x="2776.482213438735" y="501.26582278481015" as="sourcePoint" />
            <mxPoint x="2963.2411067193675" y="501.26582278481015" as="targetPoint" />
          </mxGeometry>
        </mxCell>
        <mxCell id="Np-ABr15ij-Jm8Wm-Wb1-126" value="+4" style="rounded=0;whiteSpace=wrap;html=1;fillColor=#CCFFCC;container=0;" vertex="1" parent="Np-ABr15ij-Jm8Wm-Wb1-141">
          <mxGeometry x="2502.569169960474" y="104.43037974683544" width="49.80237154150197" height="83.54430379746836" as="geometry" />
        </mxCell>
        <mxCell id="Np-ABr15ij-Jm8Wm-Wb1-127" value="" style="endArrow=classic;html=1;rounded=0;entryX=0;entryY=0.5;entryDx=0;entryDy=0;exitX=0.089;exitY=0;exitDx=0;exitDy=0;exitPerimeter=0;strokeColor=#00FF00;strokeWidth=5;" edge="1" parent="Np-ABr15ij-Jm8Wm-Wb1-141" source="Np-ABr15ij-Jm8Wm-Wb1-97" target="Np-ABr15ij-Jm8Wm-Wb1-126">
          <mxGeometry width="50" height="50" relative="1" as="geometry">
            <mxPoint x="1917.391304347826" y="689.2405063291139" as="sourcePoint" />
            <mxPoint x="1979.6442687747035" y="584.8101265822785" as="targetPoint" />
          </mxGeometry>
        </mxCell>
        <mxCell id="Np-ABr15ij-Jm8Wm-Wb1-128" value="" style="endArrow=classic;html=1;rounded=0;exitX=0.971;exitY=-0.011;exitDx=0;exitDy=0;exitPerimeter=0;entryX=0.646;entryY=1;entryDx=0;entryDy=0;entryPerimeter=0;strokeColor=#999900;strokeWidth=5;" edge="1" parent="Np-ABr15ij-Jm8Wm-Wb1-141" source="Np-ABr15ij-Jm8Wm-Wb1-36" target="Np-ABr15ij-Jm8Wm-Wb1-97">
          <mxGeometry width="50" height="50" relative="1" as="geometry">
            <mxPoint x="2266.00790513834" y="731.0126582278481" as="sourcePoint" />
            <mxPoint x="2328.260869565217" y="626.5822784810126" as="targetPoint" />
            <Array as="points">
              <mxPoint x="1989.6047430830038" y="1065.1898734177216" />
            </Array>
          </mxGeometry>
        </mxCell>
        <mxCell id="Np-ABr15ij-Jm8Wm-Wb1-129" value="" style="endArrow=classic;html=1;rounded=0;exitX=0.642;exitY=-0.029;exitDx=0;exitDy=0;exitPerimeter=0;entryX=1;entryY=0.5;entryDx=0;entryDy=0;strokeColor=#00FF00;strokeWidth=5;" edge="1" parent="Np-ABr15ij-Jm8Wm-Wb1-141" source="Np-ABr15ij-Jm8Wm-Wb1-97" target="Np-ABr15ij-Jm8Wm-Wb1-117">
          <mxGeometry width="50" height="50" relative="1" as="geometry">
            <mxPoint x="2266.00790513834" y="731.0126582278481" as="sourcePoint" />
            <mxPoint x="2328.260869565217" y="626.5822784810126" as="targetPoint" />
            <Array as="points">
              <mxPoint x="2985.6521739130435" y="1058.9240506329113" />
            </Array>
          </mxGeometry>
        </mxCell>
        <mxCell id="Np-ABr15ij-Jm8Wm-Wb1-130" value="" style="endArrow=classic;html=1;rounded=0;exitX=0.872;exitY=0.028;exitDx=0;exitDy=0;exitPerimeter=0;entryX=0.519;entryY=0.944;entryDx=0;entryDy=0;entryPerimeter=0;strokeColor=#999900;strokeWidth=5;" edge="1" parent="Np-ABr15ij-Jm8Wm-Wb1-141" source="Np-ABr15ij-Jm8Wm-Wb1-36" target="Np-ABr15ij-Jm8Wm-Wb1-97">
          <mxGeometry width="50" height="50" relative="1" as="geometry">
            <mxPoint x="1070.7509881422925" y="751.8987341772151" as="sourcePoint" />
            <mxPoint x="1133.00395256917" y="647.4683544303798" as="targetPoint" />
            <Array as="points">
              <mxPoint x="1892.490118577075" y="856.3291139240506" />
            </Array>
          </mxGeometry>
        </mxCell>
        <mxCell id="Np-ABr15ij-Jm8Wm-Wb1-131" value="branch condition" style="rounded=0;whiteSpace=wrap;html=1;fillColor=#FFFFCC;container=0;" vertex="1" parent="Np-ABr15ij-Jm8Wm-Wb1-141">
          <mxGeometry x="1599.9011857707508" y="772.7848101265823" width="149.4071146245059" height="125.31645569620254" as="geometry" />
        </mxCell>
        <mxCell id="Np-ABr15ij-Jm8Wm-Wb1-132" value="" style="endArrow=classic;html=1;rounded=0;entryX=0;entryY=0.75;entryDx=0;entryDy=0;strokeColor=#FFF700;strokeWidth=5;" edge="1" parent="Np-ABr15ij-Jm8Wm-Wb1-141" target="Np-ABr15ij-Jm8Wm-Wb1-131">
          <mxGeometry width="50" height="50" relative="1" as="geometry">
            <mxPoint x="1406.9169960474308" y="751.8987341772151" as="sourcePoint" />
            <mxPoint x="1792.885375494071" y="647.4683544303798" as="targetPoint" />
            <Array as="points">
              <mxPoint x="1406.9169960474308" y="866.7721518987341" />
            </Array>
          </mxGeometry>
        </mxCell>
        <mxCell id="Np-ABr15ij-Jm8Wm-Wb1-133" value="" style="endArrow=classic;html=1;rounded=0;entryX=0;entryY=0.25;entryDx=0;entryDy=0;strokeColor=#CCCC00;strokeWidth=5;" edge="1" parent="Np-ABr15ij-Jm8Wm-Wb1-141" target="Np-ABr15ij-Jm8Wm-Wb1-131">
          <mxGeometry width="50" height="50" relative="1" as="geometry">
            <mxPoint x="1444.2687747035573" y="375.9493670886076" as="sourcePoint" />
            <mxPoint x="1792.885375494071" y="647.4683544303798" as="targetPoint" />
            <Array as="points">
              <mxPoint x="1444.2687747035573" y="804.1139240506329" />
            </Array>
          </mxGeometry>
        </mxCell>
        <mxCell id="Np-ABr15ij-Jm8Wm-Wb1-134" value="" style="endArrow=classic;html=1;rounded=0;entryX=0.389;entryY=0.944;entryDx=0;entryDy=0;entryPerimeter=0;" edge="1" parent="Np-ABr15ij-Jm8Wm-Wb1-141" target="Np-ABr15ij-Jm8Wm-Wb1-131">
          <mxGeometry width="50" height="50" relative="1" as="geometry">
            <mxPoint x="1655.9288537549405" y="1023.4177215189874" as="sourcePoint" />
            <mxPoint x="2203.7549407114625" y="647.4683544303798" as="targetPoint" />
          </mxGeometry>
        </mxCell>
        <mxCell id="Np-ABr15ij-Jm8Wm-Wb1-135" value="" style="endArrow=classic;html=1;rounded=0;entryX=1;entryY=0.5;entryDx=0;entryDy=0;exitX=1;exitY=0.5;exitDx=0;exitDy=0;strokeColor=#FFF700;strokeWidth=7;" edge="1" parent="Np-ABr15ij-Jm8Wm-Wb1-141" source="Np-ABr15ij-Jm8Wm-Wb1-131" target="Np-ABr15ij-Jm8Wm-Wb1-7">
          <mxGeometry width="50" height="50" relative="1" as="geometry">
            <mxPoint x="2141.501976284585" y="751.8987341772151" as="sourcePoint" />
            <mxPoint x="2203.7549407114625" y="647.4683544303798" as="targetPoint" />
            <Array as="points">
              <mxPoint x="1805.3359683794465" y="835.4430379746835" />
              <mxPoint x="1805.3359683794465" y="1086.0759493670887" />
              <mxPoint x="168.08300395256916" y="1086.0759493670887" />
            </Array>
          </mxGeometry>
        </mxCell>
        <mxCell id="Np-ABr15ij-Jm8Wm-Wb1-1" value="" style="rounded=0;whiteSpace=wrap;html=1;direction=south;fillColor=#FFCCCC;container=0;" vertex="1" parent="Np-ABr15ij-Jm8Wm-Wb1-141">
          <mxGeometry x="286.3636363636363" y="438.6075949367089" width="74.70355731225295" height="250.63291139240508" as="geometry" />
        </mxCell>
        <mxCell id="Np-ABr15ij-Jm8Wm-Wb1-2" value="" style="endArrow=classic;html=1;rounded=0;strokeColor=light-dark(#FF0000,#EDEDED);strokeWidth=5;" edge="1" parent="Np-ABr15ij-Jm8Wm-Wb1-141">
          <mxGeometry width="50" height="50" relative="1" as="geometry">
            <mxPoint x="186.7588932806324" y="501.26582278481015" as="sourcePoint" />
            <mxPoint x="286.3636363636363" y="501.26582278481015" as="targetPoint" />
          </mxGeometry>
        </mxCell>
        <mxCell id="Np-ABr15ij-Jm8Wm-Wb1-3" value="" style="triangle;whiteSpace=wrap;html=1;fillColor=none;container=0;" vertex="1" parent="Np-ABr15ij-Jm8Wm-Wb1-141">
          <mxGeometry x="286.3636363636363" y="626.5822784810126" width="24.901185770750985" height="62.65822784810127" as="geometry" />
        </mxCell>
        <mxCell id="Np-ABr15ij-Jm8Wm-Wb1-7" value="" style="shape=trapezoid;perimeter=trapezoidPerimeter;whiteSpace=wrap;html=1;fixedSize=1;direction=south;fillColor=#FFCCCC;container=0;" vertex="1" parent="Np-ABr15ij-Jm8Wm-Wb1-141">
          <mxGeometry x="149.4071146245059" y="375.9493670886076" width="37.35177865612648" height="250.63291139240508" as="geometry" />
        </mxCell>
        <mxCell id="Np-ABr15ij-Jm8Wm-Wb1-9" value="" style="endArrow=classic;html=1;rounded=0;entryX=0.75;entryY=1;entryDx=0;entryDy=0;strokeColor=#FFFF00;strokeWidth=7;" edge="1" parent="Np-ABr15ij-Jm8Wm-Wb1-141" target="Np-ABr15ij-Jm8Wm-Wb1-7">
          <mxGeometry width="50" height="50" relative="1" as="geometry">
            <mxPoint x="2033.5968379446638" y="459.49367088607596" as="sourcePoint" />
            <mxPoint x="99.60474308300394" y="522.1518987341772" as="targetPoint" />
            <Array as="points">
              <mxPoint x="2033.181818181818" />
              <mxPoint />
              <mxPoint y="563.9240506329114" />
            </Array>
          </mxGeometry>
        </mxCell>
        <mxCell id="Np-ABr15ij-Jm8Wm-Wb1-10" value="0" style="text;html=1;align=center;verticalAlign=middle;whiteSpace=wrap;rounded=0;container=0;" vertex="1" parent="Np-ABr15ij-Jm8Wm-Wb1-141">
          <mxGeometry x="130.7312252964427" y="417.72151898734177" width="74.70355731225295" height="62.65822784810127" as="geometry" />
        </mxCell>
        <mxCell id="Np-ABr15ij-Jm8Wm-Wb1-11" value="1" style="text;html=1;align=center;verticalAlign=middle;whiteSpace=wrap;rounded=0;container=0;" vertex="1" parent="Np-ABr15ij-Jm8Wm-Wb1-141">
          <mxGeometry x="130.7312252964427" y="522.1518987341772" width="74.70355731225295" height="62.65822784810127" as="geometry" />
        </mxCell>
        <mxCell id="Np-ABr15ij-Jm8Wm-Wb1-18" value="" style="rounded=0;whiteSpace=wrap;html=1;direction=south;fillColor=#FFCCCC;container=0;" vertex="1" parent="Np-ABr15ij-Jm8Wm-Wb1-141">
          <mxGeometry x="616.3043478260869" y="438.6075949367089" width="74.70355731225295" height="459.49367088607596" as="geometry" />
        </mxCell>
        <mxCell id="Np-ABr15ij-Jm8Wm-Wb1-19" value="" style="endArrow=classic;html=1;rounded=0;exitX=0.45;exitY=0.067;exitDx=0;exitDy=0;exitPerimeter=0;strokeColor=light-dark(#FF0000,#EDEDED);strokeWidth=5;" edge="1" parent="Np-ABr15ij-Jm8Wm-Wb1-141" source="Np-ABr15ij-Jm8Wm-Wb1-1">
          <mxGeometry width="50" height="50" relative="1" as="geometry">
            <mxPoint x="516.699604743083" y="553.4810126582279" as="sourcePoint" />
            <mxPoint x="616.3043478260869" y="553.4810126582279" as="targetPoint" />
          </mxGeometry>
        </mxCell>
        <mxCell id="Np-ABr15ij-Jm8Wm-Wb1-20" value="" style="triangle;whiteSpace=wrap;html=1;fillColor=#FFCCCC;container=0;" vertex="1" parent="Np-ABr15ij-Jm8Wm-Wb1-141">
          <mxGeometry x="616.3043478260869" y="835.4430379746835" width="24.901185770750985" height="62.65822784810127" as="geometry" />
        </mxCell>
        <mxCell id="Np-ABr15ij-Jm8Wm-Wb1-22" value="" style="rounded=0;whiteSpace=wrap;html=1;direction=south;fillColor=#FFFF00;fillStyle=dots;container=0;" vertex="1" parent="Np-ABr15ij-Jm8Wm-Wb1-141">
          <mxGeometry x="790.6126482213439" y="20.88607594936709" width="74.70355731225295" height="1629.113924050633" as="geometry" />
        </mxCell>
        <mxCell id="Np-ABr15ij-Jm8Wm-Wb1-23" value="" style="endArrow=classic;html=1;rounded=0;strokeColor=light-dark(#FF0000,#EDEDED);strokeWidth=5;" edge="1" parent="Np-ABr15ij-Jm8Wm-Wb1-141">
          <mxGeometry width="50" height="50" relative="1" as="geometry">
            <mxPoint x="691.0079051383399" y="522.1518987341772" as="sourcePoint" />
            <mxPoint x="790.6126482213439" y="522.1518987341772" as="targetPoint" />
          </mxGeometry>
        </mxCell>
        <mxCell id="Np-ABr15ij-Jm8Wm-Wb1-24" value="" style="triangle;whiteSpace=wrap;html=1;fillColor=none;container=0;" vertex="1" parent="Np-ABr15ij-Jm8Wm-Wb1-141">
          <mxGeometry x="790.6126482213439" y="1545.5696202531647" width="24.901185770750985" height="104.43037974683544" as="geometry" />
        </mxCell>
        <mxCell id="Np-ABr15ij-Jm8Wm-Wb1-27" value="" style="rounded=0;whiteSpace=wrap;html=1;direction=south;container=0;fillColor=#FFFFCC;" vertex="1" parent="Np-ABr15ij-Jm8Wm-Wb1-141">
          <mxGeometry x="1058.300395256917" y="396.8354430379747" width="74.70355731225295" height="501.26582278481015" as="geometry" />
        </mxCell>
        <mxCell id="Np-ABr15ij-Jm8Wm-Wb1-28" value="" style="endArrow=classic;html=1;rounded=0;strokeColor=light-dark(#fbff00, #ededed);strokeWidth=5;" edge="1" parent="Np-ABr15ij-Jm8Wm-Wb1-141">
          <mxGeometry width="50" height="50" relative="1" as="geometry">
            <mxPoint x="896.4426877470355" y="522.1518987341772" as="sourcePoint" />
            <mxPoint x="1058.300395256917" y="522.141611562441" as="targetPoint" />
          </mxGeometry>
        </mxCell>
        <mxCell id="Np-ABr15ij-Jm8Wm-Wb1-29" value="" style="triangle;whiteSpace=wrap;html=1;container=0;fillColor=none;" vertex="1" parent="Np-ABr15ij-Jm8Wm-Wb1-141">
          <mxGeometry x="1058.300395256917" y="837.9493670886076" width="24.901185770750985" height="60.15189873417722" as="geometry" />
        </mxCell>
        <mxCell id="Np-ABr15ij-Jm8Wm-Wb1-31" value="" style="endArrow=classic;html=1;rounded=0;labelBackgroundColor=none;strokeColor=#66CC00;strokeWidth=8;" edge="1" parent="Np-ABr15ij-Jm8Wm-Wb1-141">
          <mxGeometry width="50" height="50" relative="1" as="geometry">
            <mxPoint x="3013.0434782608695" y="403.1012658227848" as="sourcePoint" />
            <mxPoint x="1058.300395256917" y="710.1253353485737" as="targetPoint" />
            <Array as="points">
              <mxPoint x="3150" y="403.1012658227848" />
              <mxPoint x="3150" y="918.9873417721519" />
              <mxPoint x="946.2450592885375" y="918.9873417721519" />
              <mxPoint x="946.2450592885375" y="710.126582278481" />
            </Array>
          </mxGeometry>
        </mxCell>
        <mxCell id="Np-ABr15ij-Jm8Wm-Wb1-32" value="" style="endArrow=classic;html=1;rounded=0;strokeColor=light-dark(#FFF700,#EDEDED);strokeWidth=5;" edge="1" parent="Np-ABr15ij-Jm8Wm-Wb1-141">
          <mxGeometry width="50" height="50" relative="1" as="geometry">
            <mxPoint x="896.4426877470355" y="426.07594936708864" as="sourcePoint" />
            <mxPoint x="1058.300395256917" y="426.7617608161723" as="targetPoint" />
          </mxGeometry>
        </mxCell>
        <mxCell id="Np-ABr15ij-Jm8Wm-Wb1-30" value="" style="endArrow=classic;html=1;rounded=0;strokeColor=light-dark(#00CC00,#EDEDED);strokeWidth=8;" edge="1" parent="Np-ABr15ij-Jm8Wm-Wb1-141">
          <mxGeometry width="50" height="50" relative="1" as="geometry">
            <mxPoint x="2066.798418972332" y="1441.139240506329" as="sourcePoint" />
            <mxPoint x="1058.300395256917" y="646.4277914226336" as="targetPoint" />
            <Array as="points">
              <mxPoint x="2066.798418972332" y="1211.392405063291" />
              <mxPoint x="921.3438735177865" y="1211.392405063291" />
              <mxPoint x="921.3438735177865" y="647.4683544303798" />
            </Array>
          </mxGeometry>
        </mxCell>
        <mxCell id="Np-ABr15ij-Jm8Wm-Wb1-33" value="" style="endArrow=classic;html=1;rounded=0;exitX=0.515;exitY=0;exitDx=0;exitDy=0;exitPerimeter=0;strokeColor=#00FF00;strokeWidth=8;" edge="1" parent="Np-ABr15ij-Jm8Wm-Wb1-141" source="Np-ABr15ij-Jm8Wm-Wb1-97">
          <mxGeometry width="50" height="50" relative="1" as="geometry">
            <mxPoint x="1008.498023715415" y="785.3164556962025" as="sourcePoint" />
            <mxPoint x="1058.300395256917" y="785.8775741545438" as="targetPoint" />
            <Array as="points">
              <mxPoint x="2402.96442687747" y="850.0632911392405" />
              <mxPoint x="2402.96442687747" y="981.6455696202531" />
              <mxPoint x="983.596837944664" y="981.6455696202531" />
              <mxPoint x="983.596837944664" y="785.3164556962025" />
            </Array>
          </mxGeometry>
        </mxCell>
        <mxCell id="Np-ABr15ij-Jm8Wm-Wb1-44" value="" style="shape=trapezoid;perimeter=trapezoidPerimeter;whiteSpace=wrap;html=1;fixedSize=1;direction=south;fillColor=#FFFFCC;container=0;" vertex="1" parent="Np-ABr15ij-Jm8Wm-Wb1-141">
          <mxGeometry x="1286.5612648221343" y="292.40506329113924" width="24.901185770750985" height="167.08860759493672" as="geometry" />
        </mxCell>
        <mxCell id="Np-ABr15ij-Jm8Wm-Wb1-48" value="1" style="text;html=1;align=center;verticalAlign=middle;whiteSpace=wrap;rounded=0;container=0;" vertex="1" parent="Np-ABr15ij-Jm8Wm-Wb1-141">
          <mxGeometry x="1274.1106719367588" y="313.28417721518986" width="49.80237154150197" height="41.77215189873418" as="geometry" />
        </mxCell>
        <mxCell id="Np-ABr15ij-Jm8Wm-Wb1-47" value="0" style="text;html=1;align=center;verticalAlign=middle;whiteSpace=wrap;rounded=0;container=0;" vertex="1" parent="Np-ABr15ij-Jm8Wm-Wb1-141">
          <mxGeometry x="1274.1106719367588" y="396.84240506329115" width="49.80237154150197" height="41.77215189873418" as="geometry" />
        </mxCell>
        <mxCell id="Np-ABr15ij-Jm8Wm-Wb1-65" value="" style="shape=trapezoid;perimeter=trapezoidPerimeter;whiteSpace=wrap;html=1;fixedSize=1;direction=south;fillColor=#FFFFCC;container=0;" vertex="1" parent="Np-ABr15ij-Jm8Wm-Wb1-141">
          <mxGeometry x="1286.5612648221345" y="480.37974683544303" width="24.901185770750985" height="167.08860759493672" as="geometry" />
        </mxCell>
        <mxCell id="Np-ABr15ij-Jm8Wm-Wb1-67" value="" style="endArrow=classic;html=1;rounded=0;strokeColor=#66CC00;strokeWidth=5;" edge="1" parent="Np-ABr15ij-Jm8Wm-Wb1-141">
          <mxGeometry width="50" height="50" relative="1" as="geometry">
            <mxPoint x="1220.1581027667983" y="918.9873417721519" as="sourcePoint" />
            <mxPoint x="1280" y="606" as="targetPoint" />
            <Array as="points">
              <mxPoint x="1220.1581027667983" y="605.6962025316456" />
            </Array>
          </mxGeometry>
        </mxCell>
        <mxCell id="Np-ABr15ij-Jm8Wm-Wb1-68" value="0" style="text;html=1;align=center;verticalAlign=middle;whiteSpace=wrap;rounded=0;container=0;" vertex="1" parent="Np-ABr15ij-Jm8Wm-Wb1-141">
          <mxGeometry x="1274.1106719367588" y="508.22784810126586" width="49.80237154150197" height="41.77215189873418" as="geometry" />
        </mxCell>
        <mxCell id="Np-ABr15ij-Jm8Wm-Wb1-69" value="1" style="text;html=1;align=center;verticalAlign=middle;whiteSpace=wrap;rounded=0;container=0;" vertex="1" parent="Np-ABr15ij-Jm8Wm-Wb1-141">
          <mxGeometry x="1274.1106719367588" y="577.8481012658227" width="49.80237154150197" height="41.77215189873418" as="geometry" />
        </mxCell>
        <mxCell id="Np-ABr15ij-Jm8Wm-Wb1-70" value="" style="endArrow=classic;html=1;rounded=0;entryX=0.167;entryY=0.444;entryDx=0;entryDy=0;entryPerimeter=0;strokeColor=#FFF700;strokeWidth=5;" edge="1" parent="Np-ABr15ij-Jm8Wm-Wb1-141" target="Np-ABr15ij-Jm8Wm-Wb1-90">
          <mxGeometry width="50" height="50" relative="1" as="geometry">
            <mxPoint x="1311.4624505928855" y="563.9240506329114" as="sourcePoint" />
            <mxPoint x="1394.4664031620553" y="563.9240506329114" as="targetPoint" />
          </mxGeometry>
        </mxCell>
        <mxCell id="Np-ABr15ij-Jm8Wm-Wb1-72" value="" style="shape=trapezoid;perimeter=trapezoidPerimeter;whiteSpace=wrap;html=1;fixedSize=1;direction=south;fillColor=#FFFFCC;container=0;" vertex="1" parent="Np-ABr15ij-Jm8Wm-Wb1-141">
          <mxGeometry x="1535.573122529644" y="229.74683544303798" width="24.901185770750985" height="187.9746835443038" as="geometry" />
        </mxCell>
        <mxCell id="Np-ABr15ij-Jm8Wm-Wb1-76" value="1" style="text;html=1;align=center;verticalAlign=middle;whiteSpace=wrap;rounded=0;container=0;" vertex="1" parent="Np-ABr15ij-Jm8Wm-Wb1-141">
          <mxGeometry x="1523.1225296442685" y="261.0759493670886" width="49.80237154150197" height="46.99367088607595" as="geometry" />
        </mxCell>
        <mxCell id="Np-ABr15ij-Jm8Wm-Wb1-77" value="" style="endArrow=classic;html=1;rounded=0;strokeColor=#FFF700;strokeWidth=5;" edge="1" parent="Np-ABr15ij-Jm8Wm-Wb1-141">
          <mxGeometry width="50" height="50" relative="1" as="geometry">
            <mxPoint x="1560.474308300395" y="323.7341772151899" as="sourcePoint" />
            <mxPoint x="1718.181818181818" y="323.7341772151899" as="targetPoint" />
          </mxGeometry>
        </mxCell>
        <mxCell id="Np-ABr15ij-Jm8Wm-Wb1-75" value="0" style="text;html=1;align=center;verticalAlign=middle;whiteSpace=wrap;rounded=0;container=0;" vertex="1" parent="Np-ABr15ij-Jm8Wm-Wb1-141">
          <mxGeometry x="1523.1225296442685" y="339.3987341772152" width="49.80237154150197" height="46.99367088607595" as="geometry" />
        </mxCell>
        <mxCell id="Np-ABr15ij-Jm8Wm-Wb1-86" value="" style="shape=trapezoid;perimeter=trapezoidPerimeter;whiteSpace=wrap;html=1;fixedSize=1;direction=south;fillColor=#FFFFCC;container=0;" vertex="1" parent="Np-ABr15ij-Jm8Wm-Wb1-141">
          <mxGeometry x="1535.573122529644" y="501.26582278481015" width="24.901185770750985" height="187.9746835443038" as="geometry" />
        </mxCell>
        <mxCell id="Np-ABr15ij-Jm8Wm-Wb1-89" value="" style="endArrow=classic;html=1;rounded=0;strokeColor=#FFF700;strokeWidth=5;" edge="1" parent="Np-ABr15ij-Jm8Wm-Wb1-141">
          <mxGeometry width="50" height="50" relative="1" as="geometry">
            <mxPoint x="1560.474308300395" y="595.253164556962" as="sourcePoint" />
            <mxPoint x="1718.181818181818" y="595.253164556962" as="targetPoint" />
          </mxGeometry>
        </mxCell>
        <mxCell id="Np-ABr15ij-Jm8Wm-Wb1-90" value="0" style="text;html=1;align=center;verticalAlign=middle;whiteSpace=wrap;rounded=0;container=0;" vertex="1" parent="Np-ABr15ij-Jm8Wm-Wb1-141">
          <mxGeometry x="1523.1225296442685" y="543.0379746835443" width="49.80237154150197" height="46.99367088607595" as="geometry" />
        </mxCell>
        <mxCell id="Np-ABr15ij-Jm8Wm-Wb1-88" value="1" style="text;html=1;align=center;verticalAlign=middle;whiteSpace=wrap;rounded=0;container=0;" vertex="1" parent="Np-ABr15ij-Jm8Wm-Wb1-141">
          <mxGeometry x="1523.1225296442685" y="605.6962025316456" width="49.80237154150197" height="46.99367088607595" as="geometry" />
        </mxCell>
        <mxCell id="Np-ABr15ij-Jm8Wm-Wb1-97" value="" style="rounded=0;direction=south;fontColor=default;fillColor=#00FF00;html=1;fillStyle=dots;container=0;" vertex="1" parent="Np-ABr15ij-Jm8Wm-Wb1-141">
          <mxGeometry x="2166.403162055336" width="74.70355731225295" height="1649.9999999999998" as="geometry" />
        </mxCell>
        <mxCell id="Np-ABr15ij-Jm8Wm-Wb1-98" value="" style="endArrow=classic;html=1;rounded=0;strokeColor=#FFF700;strokeWidth=5;" edge="1" parent="Np-ABr15ij-Jm8Wm-Wb1-141">
          <mxGeometry width="50" height="50" relative="1" as="geometry">
            <mxPoint x="1867.588932806324" y="459.49367088607596" as="sourcePoint" />
            <mxPoint x="2166.403162055336" y="459.4936708860759" as="targetPoint" />
          </mxGeometry>
        </mxCell>
        <mxCell id="Np-ABr15ij-Jm8Wm-Wb1-99" value="" style="triangle;whiteSpace=wrap;html=1;fillColor=none;container=0;" vertex="1" parent="Np-ABr15ij-Jm8Wm-Wb1-141">
          <mxGeometry x="2166.403162055336" y="1524.6835443037976" width="37.35177865612648" height="125.31645569620254" as="geometry" />
        </mxCell>
        <mxCell id="Np-ABr15ij-Jm8Wm-Wb1-106" value="" style="rounded=0;whiteSpace=wrap;html=1;direction=south;fillColor=#CCFFCC;container=0;" vertex="1" parent="Np-ABr15ij-Jm8Wm-Wb1-141">
          <mxGeometry x="2552.371541501976" y="355.0632911392405" width="74.70355731225295" height="501.2658227848101" as="geometry" />
        </mxCell>
        <mxCell id="Np-ABr15ij-Jm8Wm-Wb1-108" value="" style="triangle;whiteSpace=wrap;html=1;fillColor=none;container=0;" vertex="1" parent="Np-ABr15ij-Jm8Wm-Wb1-141">
          <mxGeometry x="2552.371541501976" y="787.9746835443037" width="24.901185770750985" height="68.35443037974683" as="geometry" />
        </mxCell>
        <mxCell id="Np-ABr15ij-Jm8Wm-Wb1-117" value="" style="shape=trapezoid;perimeter=trapezoidPerimeter;whiteSpace=wrap;html=1;fixedSize=1;direction=south;fillColor=#CCFFCC;container=0;" vertex="1" parent="Np-ABr15ij-Jm8Wm-Wb1-141">
          <mxGeometry x="2957.899802371541" y="187.9746835443038" width="55.14367588932806" height="438.6075949367089" as="geometry" />
        </mxCell>
        <mxCell id="Np-ABr15ij-Jm8Wm-Wb1-118" value="" style="endArrow=classic;html=1;rounded=0;exitX=0.277;exitY=0.067;exitDx=0;exitDy=0;exitPerimeter=0;strokeColor=#00FF00;strokeWidth=5;" edge="1" parent="Np-ABr15ij-Jm8Wm-Wb1-141" source="Np-ABr15ij-Jm8Wm-Wb1-97">
          <mxGeometry width="50" height="50" relative="1" as="geometry">
            <mxPoint x="2278.458498023715" y="459.49367088607596" as="sourcePoint" />
            <mxPoint x="2957.905138339921" y="271.5189873417722" as="targetPoint" />
            <Array as="points">
              <mxPoint x="2278.458498023715" y="457.40506329113924" />
              <mxPoint x="2278.458498023715" y="271.5189873417722" />
            </Array>
          </mxGeometry>
        </mxCell>
        <mxCell id="Np-ABr15ij-Jm8Wm-Wb1-120" value="0" style="text;html=1;align=center;verticalAlign=middle;whiteSpace=wrap;rounded=0;container=0;" vertex="1" parent="Np-ABr15ij-Jm8Wm-Wb1-141">
          <mxGeometry x="2935.2272727272725" y="229.74683544303798" width="90.71146245059286" height="62.65822784810127" as="geometry" />
        </mxCell>
        <mxCell id="Np-ABr15ij-Jm8Wm-Wb1-121" value="1" style="text;html=1;align=center;verticalAlign=middle;whiteSpace=wrap;rounded=0;container=0;" vertex="1" parent="Np-ABr15ij-Jm8Wm-Wb1-141">
          <mxGeometry x="2935.2272727272725" y="355.0632911392405" width="90.71146245059286" height="62.65822784810127" as="geometry" />
        </mxCell>
        <mxCell id="Np-ABr15ij-Jm8Wm-Wb1-123" value="2" style="text;html=1;align=center;verticalAlign=middle;whiteSpace=wrap;rounded=0;container=0;" vertex="1" parent="Np-ABr15ij-Jm8Wm-Wb1-141">
          <mxGeometry x="2935.2272727272725" y="469.9367088607595" width="90.71146245059286" height="62.65822784810127" as="geometry" />
        </mxCell>
        <mxCell id="Np-ABr15ij-Jm8Wm-Wb1-124" value="" style="endArrow=classic;html=1;rounded=0;strokeColor=#00FF00;strokeWidth=5;" edge="1" parent="Np-ABr15ij-Jm8Wm-Wb1-141">
          <mxGeometry width="50" height="50" relative="1" as="geometry">
            <mxPoint x="2552.371541501976" y="146.20253164556962" as="sourcePoint" />
            <mxPoint x="2957.905138339921" y="386.39240506329116" as="targetPoint" />
            <Array as="points">
              <mxPoint x="2746.2450592885375" y="150.37974683544303" />
              <mxPoint x="2746.2450592885375" y="386.39240506329116" />
            </Array>
          </mxGeometry>
        </mxCell>
      </root>
    </mxGraphModel>
  </diagram>
</mxfile>
